<svg width="411" height="411" viewBox="0 0 411 411" fill="none" xmlns="http://www.w3.org/2000/svg">
<circle cx="205.5" cy="205.5" r="205.5" fill="#FFDFE6"/>
<mask id="mask0_231_720" style="mask-type:alpha" maskUnits="userSpaceOnUse" x="0" y="0" width="411" height="411">
<circle cx="205.5" cy="205.5" r="205.5" fill="#FFEADF"/>
</mask>
<g mask="url(#mask0_231_720)">
<path d="M80.1251 302.924L67.2657 410.998H-12.2197L-9.58483 393.078C-8.62569 381.289 -5.69619 369.969 -1.0882 359.416C6.72333 341.821 19.6279 327.502 35.4688 317.672V317.645C36.28 317.123 37.0966 316.678 37.9078 316.18C50.6397 308.786 65.0487 304.167 80.1251 302.924Z" fill="#0D6EFD"/>
<path d="M407.343 410.999H327.633L313.936 295.702C322.982 296.449 331.821 298.41 340.171 301.485C364.29 310.272 384.56 328.096 395.153 352.244C399.761 362.721 402.666 374.065 403.65 385.857L407.343 410.999Z" fill="#0D6EFD"/>
<path d="M353.96 308.738L340.37 411H47.6371L35.4697 317.673V317.645C36.2809 317.123 37.0975 316.679 37.9087 316.18C56.2749 305.267 97.9702 292.712 127.756 284.566C148.77 278.824 170.448 275.977 192.229 276.076L215.388 276.187C231.558 276.26 247.669 277.968 263.506 281.276C289.133 286.622 327.156 295.205 340.164 301.486C345.147 303.842 349.75 306.279 353.96 308.738Z" fill="#0D6EFD"/>
<path d="M265.264 176.421C265.264 176.421 271.829 194.56 242.476 205.101L244.518 353.35L157.448 314.022L165.175 228.326L198.579 213.86L206.544 199.361C206.544 199.361 218.107 184.327 219.505 182.847C220.9 181.365 233.271 170.398 233.271 170.398L259.859 178.482L265.264 176.421Z" fill="#FAB9C9"/>
<path d="M227.484 220.315C232.946 198.506 218.834 199.316 203 205.831L198.589 213.86L167.594 227.282L164.311 238.908L161.247 276.02C161.246 276.02 216.325 264.891 227.484 220.315Z" fill="#1B1E28"/>
<path d="M141.06 164.334C141.06 164.334 116.905 153.301 125.389 128.274C133.872 103.246 134.083 103.248 132.322 91.4507C130.559 79.655 135.061 50.2892 169.252 58.5171C203.445 66.7463 208.075 67.6355 225.526 60.2913C242.977 52.9471 267.053 68.9721 263.297 107.919C260.107 141.022 253.144 131.867 259.762 149.595C266.383 167.323 262.489 171.754 250.887 174.548C224.008 181.021 210.953 168.114 210.953 167.505C210.953 166.896 205.651 153.321 202.338 151.541C199.025 149.76 168.765 141.304 168.105 142.193C167.442 143.082 157.454 157.047 157.454 157.047L141.06 164.334Z" fill="#1B1E28"/>
<path d="M127.259 168.007C137.076 168.545 147.032 168.06 156.867 167.969C157.636 167.962 157.639 166.756 156.867 166.762C147.032 166.841 137.069 166.522 127.259 167.229C126.764 167.262 126.76 167.983 127.259 168.007Z" fill="#1B1E28"/>
<path d="M141.116 130.17V206.612C141.116 206.612 138.745 242.909 165.785 244.365C192.824 245.82 209.128 244.47 217.903 234.796C226.675 225.124 234.932 207.859 228.736 161.995C222.546 116.127 216.045 108.33 216.045 108.33L182.296 98.0327L150.402 103.648L141.116 130.17Z" fill="#FAB9C9"/>
<path d="M141.074 209.85C141.24 218.773 143.71 243.178 165.785 244.364C192.825 245.819 209.129 244.469 217.904 234.796C224.434 227.595 230.671 216.178 230.884 191.896C230.844 184.002 230.193 174.817 228.738 164.032C227.89 157.733 227.135 152.013 226.461 146.793C221.052 114.34 216.047 108.331 216.047 108.331L182.298 98.0337L150.403 103.649L141.545 128.947L141.116 132.207V132.986C141.116 132.986 142.741 128.775 149.477 129.009C156.213 129.243 155.514 126.044 163.409 117.229C171.307 108.417 175.177 119.569 181.415 124.795C187.654 130.022 196.463 123.079 206.679 122.767C216.899 122.454 214.884 134.78 212.952 138.135C211.014 141.489 209.234 146.247 215.431 148.51C221.621 150.77 223.786 151.784 224.564 167.071C225.336 182.36 221.235 193.205 213.415 198.349C205.598 203.5 189.11 202.329 177.653 193.515C166.196 184.701 153.77 193.166 147.775 195.777C144.609 197.154 141.537 195.37 141.118 195.109V206.61V208.647C141.116 208.65 141.089 209.093 141.074 209.85Z" fill="#E5A0B1"/>
<path d="M164.473 149.97C163.246 159.784 161.783 170.866 163.074 180.69C163.548 184.299 165.663 187.091 170.498 186.075C171.734 185.814 171.208 184.324 169.973 184.527C162.375 185.78 164.99 169.909 165.062 167.123C165.217 161.405 165.491 155.69 165.43 149.97C165.423 149.46 164.532 149.48 164.473 149.97Z" fill="#EAAABA"/>
<path d="M180.327 175.738C182.51 175.738 184.28 173.955 184.28 171.755C184.28 169.555 182.51 167.771 180.327 167.771C178.144 167.771 176.374 169.555 176.374 171.755C176.374 173.955 178.144 175.738 180.327 175.738Z" fill="#1B1E28"/>
<path d="M150.313 175.738C152.497 175.738 154.266 173.955 154.266 171.755C154.266 169.555 152.497 167.771 150.313 167.771C148.13 167.771 146.36 169.555 146.36 171.755C146.36 173.955 148.13 175.738 150.313 175.738Z" fill="#1B1E28"/>
<path d="M143.032 157.877C145.352 156.937 147.274 155.615 149.841 155.299C152.677 154.941 154.95 155.771 157.575 156.669C158.665 157.039 159.092 155.527 158.303 154.933C154.105 151.775 145.359 152.288 142.287 156.898C141.98 157.354 142.496 158.096 143.032 157.877Z" fill="#1B1E28"/>
<path d="M176.883 156.641C179.318 155.69 181.237 154.628 183.964 154.753C186.691 154.882 188.912 156.017 191.425 156.913C192.52 157.305 192.927 155.775 192.15 155.177C188.182 152.123 179.363 150.905 176.135 155.662C175.82 156.119 176.347 156.849 176.883 156.641Z" fill="#1B1E28"/>
<path d="M200.692 179.364C202.094 182.838 199.432 187.208 194.743 189.129C190.054 191.052 185.12 189.792 183.72 186.319C182.318 182.852 184.983 178.481 189.672 176.557C194.358 174.641 199.295 175.894 200.692 179.364Z" fill="#EAAABA"/>
<path d="M147.392 177.322C145.25 176.354 143.037 176.06 141.108 176.349V189.641C141.322 189.754 141.538 189.865 141.764 189.967C146.476 192.098 151.561 190.997 153.114 187.502C154.667 184.015 152.104 179.458 147.392 177.322Z" fill="#EAAABA"/>
<path d="M161.274 165.144C162.088 173.655 157.455 181.907 148.926 184.173C139.309 186.728 129.528 180.071 128.042 170.281C126.65 161.077 132.983 152.457 142.103 151.05C151.56 149.598 159.421 156.133 161.289 165.269C161.412 165.862 162.306 165.609 162.182 165.022C160.237 155.501 151.828 148.46 141.902 150.04C132.332 151.564 125.625 160.756 127.03 170.415C128.431 180.057 137.665 186.882 147.198 185.473C157.137 184.005 163.129 174.852 162.203 165.141C162.145 164.551 161.218 164.547 161.274 165.144Z" fill="#1B1E28"/>
<path d="M203.866 168.167C203.374 177.368 196.526 185.151 187.011 185.151C177.874 185.151 170.153 177.368 170.153 168.167C170.153 159.594 176.817 152.252 185.209 151.371C195.386 150.31 203.334 158.155 203.866 168.167C203.897 168.765 204.826 168.769 204.795 168.167C204.273 158.431 197.096 150.246 187.011 150.246C177.361 150.246 169.179 158.409 169.226 168.167C169.271 177.578 176.725 185.539 186.067 186.032C196.515 186.586 204.254 178.275 204.795 168.167C204.828 167.563 203.899 167.563 203.866 168.167Z" fill="#1B1E28"/>
<path d="M161.401 167.137C163.951 167.592 167.01 167.616 169.577 167.253C169.936 167.203 169.936 166.577 169.577 166.526C167.01 166.169 163.956 166.188 161.401 166.644C161.154 166.685 161.154 167.091 161.401 167.137Z" fill="#1B1E28"/>
<path d="M203.581 167.452C213.399 167.989 223.355 167.505 233.189 167.415C233.958 167.408 233.961 166.2 233.189 166.205C223.354 166.285 213.391 165.966 203.581 166.672C203.086 166.708 203.083 167.424 203.581 167.452Z" fill="#1B1E28"/>
<path d="M265.203 176.421C257.863 157.568 229.746 170.398 229.746 170.398L227.464 188.838L241.32 183.507C241.818 184.758 254.736 185.008 254.736 185.008L265.203 176.421Z" fill="#FAB9C9"/>
<path d="M240.661 171.303C248.368 170.114 255.811 176.919 254.936 184.855C254.802 186.103 252.843 186.117 252.976 184.855C253.696 178.331 247.752 172.192 241.18 173.204C239.947 173.396 239.417 171.496 240.661 171.303Z" fill="#E6A0B1"/>
<path d="M251.329 177.096C248.099 178.518 245.682 181.144 244.627 184.549C244.257 185.761 242.366 185.244 242.743 184.026C243.931 180.168 246.654 177.014 250.341 175.392C251.488 174.889 252.485 176.588 251.329 177.096Z" fill="#E6A0B1"/>
<path d="M152.379 66.1234C141.073 73.8252 138.758 88.4708 143.979 100.631C144.147 101.026 144.717 100.684 144.551 100.294C139.483 88.4943 141.712 74.1925 152.714 66.6991C153.067 66.4589 152.733 65.879 152.379 66.1234Z" fill="white"/>
<path d="M132.705 148.369C133.652 150.295 134.519 152.242 135.687 154.045C135.92 154.404 136.495 154.07 136.26 153.709C135.089 151.904 134.223 149.957 133.278 148.034C133.089 147.648 132.516 147.987 132.705 148.369Z" fill="white"/>
<path d="M216.375 127.059C216.375 127.801 216.375 128.542 216.375 129.284C216.375 129.714 217.039 129.714 217.039 129.284C217.039 128.542 217.039 127.801 217.039 127.059C217.039 126.629 216.375 126.629 216.375 127.059Z" fill="white"/>
<path d="M215.522 136.685C215.322 136.958 215.281 137.302 215.081 137.575C214.826 137.922 215.402 138.253 215.654 137.912C215.857 137.639 215.898 137.295 216.095 137.022C216.349 136.675 215.773 136.341 215.522 136.685Z" fill="white"/>
<path d="M253.899 135.295C253.118 142.793 253.267 148.796 256.12 155.858C256.28 156.252 256.92 156.082 256.76 155.683C253.955 148.736 253.795 142.644 254.562 135.295C254.609 134.865 253.943 134.869 253.899 135.295Z" fill="white"/>
<path d="M165.784 244.365C192.824 245.82 209.128 244.469 217.902 234.796C226.674 225.124 234.931 207.859 228.735 161.995C222.545 116.127 221.28 99.7945 221.28 99.7945L197.756 86.9397L146.371 90.1127L141.115 130.168V130.947C141.115 130.947 142.74 126.737 149.476 126.969C156.212 127.204 155.513 124.005 163.408 115.191C171.306 106.379 175.175 117.532 181.414 122.758C187.652 127.982 196.461 121.041 206.678 120.729C216.898 120.416 214.882 132.741 212.951 136.096C211.013 139.451 209.233 144.208 215.429 146.471C221.62 148.732 223.785 149.744 224.563 165.032C225.334 180.321 221.233 191.166 213.414 196.312C205.597 201.46 189.109 200.291 177.651 191.476C166.195 182.663 153.769 191.128 147.774 193.739C144.608 195.115 141.536 193.331 141.116 193.071V206.611C141.115 206.612 138.744 242.909 165.784 244.365Z" fill="#1B1E28"/>
<path d="M137.949 107.475C138.19 114.484 133.948 120.174 131.324 126.373C129.469 130.754 129.204 135.504 129.336 140.19C129.347 140.62 130.01 140.623 129.998 140.19C129.798 133.06 131.414 127.49 134.503 121.135C136.729 116.556 138.79 112.693 138.611 107.475C138.597 107.046 137.934 107.044 137.949 107.475Z" fill="white"/>
<path d="M216.176 75.3031C223.982 76.5057 231.96 74.8446 239.649 77.0442C254.603 81.3176 251.119 103.693 246.457 114.207C246.283 114.596 246.856 114.935 247.027 114.543C251.683 104.045 253.56 90.4154 246.28 80.6314C239.868 72.0155 225.259 76.0307 216.352 74.6596C215.936 74.5947 215.754 75.2382 216.176 75.3031Z" fill="white"/>
<path d="M178.374 110.59C179.043 130.738 204.108 108.355 212.707 118.394C212.986 118.719 213.454 118.246 213.176 117.921C204.393 107.664 179.665 129.502 179.039 110.589C179.025 110.161 178.362 110.159 178.374 110.59Z" fill="white"/>
<path d="M164.798 244.85C175.893 244.923 187.162 246.279 198.207 244.65C210.101 242.895 218.19 238.235 224.385 227.824C224.604 227.454 224.031 227.12 223.812 227.488C217.015 238.906 207.573 243.117 194.709 244.364C184.77 245.326 174.748 244.246 164.798 244.182C164.373 244.179 164.373 244.847 164.798 244.85Z" fill="white"/>
<path d="M163.205 201.518C165.988 207.774 177.48 205.256 177.491 198.424C177.491 197.695 176.497 197.424 176.131 198.054C174.836 200.278 173.988 202.368 171.223 203.086C168.328 203.84 166.214 202.297 163.99 200.724C163.467 200.355 162.997 201.048 163.205 201.518Z" fill="white"/>
<path d="M159.72 294.213C183.808 322.638 210.083 318.93 237.787 294.213L237.79 410.998H159.721V294.213H159.72Z" fill="#F7F7F9"/>
<path d="M161.833 264.713L107.09 283.646C132.31 327.254 145.655 369.578 145.54 410.454H170.007C182.543 366.352 178.256 317.314 161.833 264.713Z" fill="#0D6EFD"/>
<path d="M242.678 264.713L297.421 283.646C272.199 327.254 258.856 369.578 258.969 410.454H234.502C221.97 366.352 226.256 317.314 242.678 264.713Z" fill="#0D6EFD"/>
</g>
</svg>
