<svg width="19" height="16" viewBox="0 0 19 16" fill="none" xmlns="http://www.w3.org/2000/svg">
<path d="M9.65999 9.44667C8.10009 9.44667 6.82581 8.29334 6.82581 6.86667C6.82581 5.44 8.10009 4.29333 9.65999 4.29333C11.2199 4.29333 12.4942 5.44667 12.4942 6.87334C12.4942 8.3 11.2199 9.44667 9.65999 9.44667ZM9.65999 5.29333C8.70794 5.29333 7.92433 6 7.92433 6.87334C7.92433 7.74667 8.70061 8.45334 9.65999 8.45334C10.6194 8.45334 11.3956 7.74667 11.3956 6.87334C11.3956 6 10.612 5.29333 9.65999 5.29333Z" fill="#FFFFFF"/>
<path d="M9.66004 15.1734C8.57617 15.1734 7.48497 14.8 6.63545 14.06C4.47503 12.1667 2.08758 9.14671 2.98836 5.55337C3.80127 2.29337 6.92839 0.833374 9.66004 0.833374C9.66004 0.833374 9.66004 0.833374 9.66736 0.833374C12.399 0.833374 15.5261 2.29337 16.339 5.56004C17.2325 9.15337 14.8451 12.1667 12.6846 14.06C11.8351 14.8 10.7439 15.1734 9.66004 15.1734ZM9.66004 1.83337C7.52891 1.83337 4.78994 2.86671 4.06491 5.77337C3.27398 8.91337 5.44172 11.62 7.40441 13.3334C8.67137 14.4467 10.656 14.4467 11.923 13.3334C13.8784 11.62 16.0461 8.91337 15.2698 5.77337C14.5375 2.86671 11.7912 1.83337 9.66004 1.83337Z" fill="#FFFFFF"/>
</svg>
