<svg width="24" height="22" viewBox="0 0 24 22" fill="none" xmlns="http://www.w3.org/2000/svg">
<path d="M2 18.6567V3.86278C2 3.63198 2.10536 3.41063 2.29289 3.24743C2.48043 3.08423 2.73478 2.99255 3 2.99255H12C12.2652 2.99255 12.5196 3.08423 12.7071 3.24743C12.8946 3.41063 13 3.63198 13 3.86278C13 4.09358 12.8946 4.31492 12.7071 4.47812C12.5196 4.64132 12.2652 4.73301 12 4.73301H4V17.7864H19V10.8246C19 10.5938 19.1054 10.3725 19.2929 10.2093C19.4804 10.0461 19.7348 9.95438 20 9.95438C20.2652 9.95438 20.5196 10.0461 20.7071 10.2093C20.8946 10.3725 21 10.5938 21 10.8246V18.6567C21 18.8875 20.8946 19.1088 20.7071 19.272C20.5196 19.4352 20.2652 19.5269 20 19.5269H3C2.73478 19.5269 2.48043 19.4352 2.29289 19.272C2.10536 19.1088 2 18.8875 2 18.6567ZM20.455 2.3773C20.3621 2.29639 20.2518 2.2322 20.1304 2.18841C20.009 2.14461 19.8789 2.12207 19.7475 2.12207C19.6161 2.12207 19.486 2.14461 19.3646 2.18841C19.2432 2.2322 19.1329 2.29639 19.04 2.3773L12.414 8.14343V10.4643H15.081L21.707 4.6982C21.8 4.61738 21.8737 4.5214 21.9241 4.41576C21.9744 4.31011 22.0003 4.19687 22.0003 4.08251C22.0003 3.96815 21.9744 3.85491 21.9241 3.74926C21.8737 3.64362 21.8 3.54764 21.707 3.46682L20.455 2.3773Z" fill="#41455C"/>
</svg>
