<svg width="19" height="16" viewBox="0 0 19 16" fill="none" xmlns="http://www.w3.org/2000/svg">
<path d="M15.5187 1.99996C15.713 1.99996 15.8992 1.92972 16.0366 1.8047C16.1739 1.67967 16.2511 1.5101 16.2511 1.33329C16.2511 1.15648 16.1739 0.986912 16.0366 0.861888C15.8992 0.736864 15.713 0.666626 15.5187 0.666626H3.80119C3.60696 0.666626 3.42069 0.736864 3.28335 0.861888C3.14601 0.986912 3.06885 1.15648 3.06885 1.33329C3.06885 1.5101 3.14601 1.67967 3.28335 1.8047C3.42069 1.92972 3.60696 1.99996 3.80119 1.99996H4.56943C4.67635 3.22396 5.11356 5.83329 6.90854 7.33329C5.01542 9.00729 4.63021 12.4893 4.55331 14H3.80119C3.60696 14 3.42069 14.0702 3.28335 14.1952C3.14601 14.3202 3.06885 14.4898 3.06885 14.6666C3.06885 14.8434 3.14601 15.013 3.28335 15.138C3.42069 15.2631 3.60696 15.3333 3.80119 15.3333H15.5187C15.713 15.3333 15.8992 15.2631 16.0366 15.138C16.1739 15.013 16.2511 14.8434 16.2511 14.6666C16.2511 14.4898 16.1739 14.3202 16.0366 14.1952C15.8992 14.0702 15.713 14 15.5187 14H14.7666C14.6897 12.4906 14.3045 9.00863 12.4114 7.33329C14.2064 5.83196 14.6436 3.22263 14.7505 1.99996H15.5187ZM10.8171 6.75063C10.7007 6.80944 10.6042 6.89601 10.5378 7.00102C10.4715 7.10604 10.4378 7.22552 10.4404 7.34665C10.4431 7.46777 10.4819 7.58595 10.5528 7.68849C10.6237 7.79103 10.7239 7.87405 10.8427 7.92863C12.6274 8.74729 13.1862 12.136 13.2997 14H6.0202C6.13079 12.1333 6.6925 8.74729 8.47723 7.92863C8.59604 7.87405 8.69627 7.79103 8.76714 7.68849C8.83802 7.58595 8.87686 7.46777 8.8795 7.34665C8.88213 7.22552 8.84846 7.10604 8.7821 7.00102C8.71574 6.89601 8.6192 6.80944 8.50286 6.75063C6.64343 5.81129 6.16448 3.22929 6.04071 1.99996H13.2792C13.1555 3.22929 12.6765 5.81129 10.8171 6.75063ZM9.65997 8.66663C9.65997 8.66663 11.857 10.2666 11.857 11.0666V13.3333H7.46293V11.0666C7.46293 10.2666 9.65997 8.66663 9.65997 8.66663Z" fill="#FFFFFF"/>
</svg>
