<svg width="36" height="35" viewBox="0 0 36 35" fill="none" xmlns="http://www.w3.org/2000/svg">
<path fill-rule="evenodd" clip-rule="evenodd" d="M11.3865 1.55462C13.0971 1.47587 13.6425 1.45837 18 1.45837C22.3575 1.45837 22.903 1.47733 24.6121 1.55462C26.3213 1.63192 27.488 1.90462 28.5088 2.29983C29.5778 2.70379 30.5475 3.33525 31.3496 4.15192C32.1663 4.95254 32.7963 5.92087 33.1988 6.99129C33.5955 8.01212 33.8667 9.17879 33.9455 10.885C34.0242 12.5986 34.0417 13.144 34.0417 17.5C34.0417 21.8575 34.0228 22.403 33.9455 24.1136C33.8682 25.8198 33.5955 26.9865 33.1988 28.0073C32.7963 29.0779 32.1652 30.0478 31.3496 30.8496C30.5475 31.6663 29.5778 32.2963 28.5088 32.6988C27.488 33.0955 26.3213 33.3667 24.615 33.4455C22.903 33.5242 22.3575 33.5417 18 33.5417C13.6425 33.5417 13.0971 33.5228 11.3865 33.4455C9.68025 33.3682 8.51358 33.0955 7.49275 32.6988C6.42222 32.2962 5.45228 31.6652 4.65046 30.8496C3.83434 30.0485 3.20279 29.079 2.79983 28.0088C2.40462 26.988 2.13337 25.8213 2.05462 24.115C1.97587 22.4015 1.95837 21.8561 1.95837 17.5C1.95837 13.1425 1.97733 12.5971 2.05462 10.888C2.13192 9.17879 2.40462 8.01212 2.79983 6.99129C3.20339 5.92099 3.83542 4.95154 4.65192 4.15046C5.4526 3.33452 6.42156 2.70298 7.49129 2.29983C8.51212 1.90462 9.67879 1.63337 11.385 1.55462H11.3865ZM24.4823 4.44212C22.7907 4.36483 22.2832 4.34879 18 4.34879C13.7169 4.34879 13.2094 4.36483 11.5177 4.44212C9.95296 4.51358 9.10421 4.77462 8.53837 4.99483C7.79025 5.2865 7.25504 5.63212 6.69358 6.19358C6.16136 6.71137 5.75176 7.3417 5.49483 8.03837C5.27462 8.60421 5.01358 9.45296 4.94212 11.0177C4.86483 12.7094 4.84879 13.2169 4.84879 17.5C4.84879 21.7832 4.86483 22.2907 4.94212 23.9823C5.01358 25.5471 5.27462 26.3959 5.49483 26.9617C5.7515 27.6573 6.16129 28.2888 6.69358 28.8065C7.21129 29.3388 7.84275 29.7486 8.53837 30.0053C9.10421 30.2255 9.95296 30.4865 11.5177 30.558C13.2094 30.6353 13.7155 30.6513 18 30.6513C22.2846 30.6513 22.7907 30.6353 24.4823 30.558C26.0471 30.4865 26.8959 30.2255 27.4617 30.0053C28.2098 29.7136 28.745 29.368 29.3065 28.8065C29.8388 28.2888 30.2486 27.6573 30.5053 26.9617C30.7255 26.3959 30.9865 25.5471 31.058 23.9823C31.1353 22.2907 31.1513 21.7832 31.1513 17.5C31.1513 13.2169 31.1353 12.7094 31.058 11.0177C30.9865 9.45296 30.7255 8.60421 30.5053 8.03837C30.2136 7.29025 29.868 6.75504 29.3065 6.19358C28.7887 5.6614 28.1584 5.25181 27.4617 4.99483C26.8959 4.77462 26.0471 4.51358 24.4823 4.44212V4.44212ZM15.9511 22.4453C17.0954 22.9216 18.3696 22.9859 19.556 22.6271C20.7424 22.2684 21.7675 21.5089 22.4561 20.4783C23.1448 19.4477 23.4543 18.2101 23.3318 16.9767C23.2093 15.7432 22.6623 14.5906 21.7844 13.7157C21.2248 13.1564 20.5481 12.7281 19.803 12.4617C19.058 12.1953 18.2632 12.0974 17.4758 12.1751C16.6884 12.2528 15.928 12.5041 15.2493 12.9109C14.5707 13.3177 13.9907 13.8699 13.5511 14.5277C13.1115 15.1856 12.8232 15.9328 12.707 16.7154C12.5909 17.498 12.6496 18.2967 12.8792 19.0539C13.1087 19.8111 13.5032 20.508 14.0344 21.0944C14.5656 21.6808 15.2202 22.1422 15.9511 22.4453ZM12.1696 11.6696C12.9353 10.904 13.8443 10.2966 14.8446 9.88224C15.845 9.46786 16.9172 9.25459 18 9.25459C19.0829 9.25459 20.1551 9.46786 21.1554 9.88223C22.1558 10.2966 23.0648 10.904 23.8305 11.6696C24.5961 12.4353 25.2035 13.3443 25.6178 14.3446C26.0322 15.345 26.2455 16.4172 26.2455 17.5C26.2455 18.5829 26.0322 19.6551 25.6178 20.6554C25.2035 21.6558 24.5961 22.5648 23.8305 23.3305C22.2841 24.8768 20.1869 25.7455 18 25.7455C15.8132 25.7455 13.7159 24.8768 12.1696 23.3305C10.6233 21.7841 9.75459 19.6869 9.75459 17.5C9.75459 15.3132 10.6233 13.2159 12.1696 11.6696V11.6696ZM28.0742 10.4825C28.2639 10.3036 28.4158 10.0883 28.5209 9.84959C28.626 9.61085 28.6821 9.35345 28.6859 9.09265C28.6897 8.83184 28.6411 8.57292 28.543 8.33122C28.445 8.08952 28.2994 7.86995 28.115 7.68552C27.9305 7.50108 27.711 7.35552 27.4693 7.25746C27.2276 7.15941 26.9687 7.11084 26.7079 7.11464C26.447 7.11844 26.1897 7.17454 25.9509 7.2796C25.7122 7.38466 25.4969 7.53656 25.318 7.72629C24.9699 8.09529 24.7793 8.58543 24.7867 9.09265C24.7941 9.59987 24.9989 10.0842 25.3576 10.4429C25.7163 10.8016 26.2006 11.0064 26.7079 11.0138C27.2151 11.0212 27.7052 10.8306 28.0742 10.4825V10.4825Z" fill="#FFFFFF"/>
</svg>
