<svg width="20" height="13" viewBox="0 0 20 13" fill="none" xmlns="http://www.w3.org/2000/svg">
  <path
    d="M20 1.08394C20 1.31474 19.8946 1.53609 19.7071 1.69929C19.5196 1.86249 19.2652 1.95417 19 1.95417H10C9.73478 1.95417 9.48043 1.86249 9.29289 1.69929C9.10536 1.53609 9 1.31474 9 1.08394C9 0.853145 9.10536 0.631799 9.29289 0.468599C9.48043 0.305399 9.73478 0.213715 10 0.213715H19C19.2652 0.213715 19.5196 0.305399 19.7071 0.468599C19.8946 0.631799 20 0.853145 20 1.08394ZM19 5.43509H10C9.73478 5.43509 9.48043 5.52677 9.29289 5.68997C9.10536 5.85317 9 6.07452 9 6.30532C9 6.53612 9.10536 6.75746 9.29289 6.92066C9.48043 7.08386 9.73478 7.17555 10 7.17555H19C19.2652 7.17555 19.5196 7.08386 19.7071 6.92066C19.8946 6.75746 20 6.53612 20 6.30532C20 6.07452 19.8946 5.85317 19.7071 5.68997C19.5196 5.52677 19.2652 5.43509 19 5.43509ZM19 10.6565H10C9.73478 10.6565 9.48043 10.7481 9.29289 10.9113C9.10536 11.0745 9 11.2959 9 11.5267C9 11.7575 9.10536 11.9788 9.29289 12.142C9.48043 12.3052 9.73478 12.3969 10 12.3969H19C19.2652 12.3969 19.5196 12.3052 19.7071 12.142C19.8946 11.9788 20 11.7575 20 11.5267C20 11.2959 19.8946 11.0745 19.7071 10.9113C19.5196 10.7481 19.2652 10.6565 19 10.6565ZM3 3.69463C2.40666 3.69463 1.82664 3.84775 1.33329 4.13461C0.839943 4.42148 0.455426 4.82921 0.228363 5.30625C0.00129986 5.78329 -0.0581102 6.30821 0.0576455 6.81464C0.173401 7.32106 0.459124 7.78624 0.878681 8.15135C1.29824 8.51646 1.83279 8.76511 2.41473 8.86584C2.99667 8.96658 3.59987 8.91488 4.14805 8.71728C4.69623 8.51968 5.16477 8.18506 5.49441 7.75574C5.82405 7.32641 6 6.82166 6 6.30532C6 5.61292 5.68393 4.94888 5.12132 4.45928C4.55871 3.96968 3.79565 3.69463 3 3.69463Z"
    fill="#41455C" />
</svg>