<svg width="16" height="17" viewBox="0 0 16 17" fill="none" xmlns="http://www.w3.org/2000/svg">
<g clip-path="url(#clip0_244_68)">
<path d="M14.4714 2.83337H1.63708C1.46688 2.83337 1.30366 2.908 1.18332 3.04084C1.06297 3.17368 0.995361 3.35385 0.995361 3.54171V13.4584C0.995361 13.6462 1.06297 13.8264 1.18332 13.9592C1.30366 14.0921 1.46688 14.1667 1.63708 14.1667H14.4714C14.6416 14.1667 14.8048 14.0921 14.9251 13.9592C15.0455 13.8264 15.1131 13.6462 15.1131 13.4584V3.54171C15.1131 3.35385 15.0455 3.17368 14.9251 3.04084C14.8048 2.908 14.6416 2.83337 14.4714 2.83337ZM13.8297 11.4637C13.561 11.569 13.3169 11.739 13.1153 11.9616C12.9137 12.1841 12.7597 12.4535 12.6643 12.75H3.44414C3.34879 12.4535 3.19471 12.1841 2.99311 11.9616C2.79151 11.739 2.54748 11.569 2.27879 11.4637V5.53637C2.54748 5.43112 2.79151 5.26104 2.99311 5.03851C3.19471 4.81598 3.34879 4.54662 3.44414 4.25004H12.6643C12.7597 4.54662 12.9137 4.81598 13.1153 5.03851C13.3169 5.26104 13.561 5.43112 13.8297 5.53637V11.4637ZM8.05422 5.66671C7.54655 5.66671 7.05027 5.83288 6.62815 6.14421C6.20604 6.45554 5.87703 6.89805 5.68276 7.41577C5.48848 7.9335 5.43764 8.50318 5.53669 9.0528C5.63573 9.60241 5.8802 10.1073 6.23918 10.5035C6.59816 10.8998 7.05553 11.1696 7.55345 11.2789C8.05138 11.3883 8.56749 11.3321 9.03652 11.1177C9.50555 10.9033 9.90644 10.5401 10.1885 10.0742C10.4705 9.60822 10.6211 9.06042 10.6211 8.50004C10.6211 7.74859 10.3506 7.02792 9.86927 6.49657C9.38789 5.96522 8.735 5.66671 8.05422 5.66671ZM8.05422 9.91671C7.80039 9.91671 7.55225 9.83362 7.34119 9.67796C7.13013 9.52229 6.96563 9.30104 6.86849 9.04218C6.77135 8.78331 6.74593 8.49847 6.79546 8.22366C6.84498 7.94886 6.96721 7.69643 7.1467 7.49831C7.32619 7.30018 7.55488 7.16526 7.80384 7.1106C8.0528 7.05593 8.31086 7.08399 8.54537 7.19121C8.77989 7.29844 8.98033 7.48001 9.12136 7.71298C9.26238 7.94595 9.33765 8.21985 9.33765 8.50004C9.33765 8.87576 9.20244 9.2361 8.96175 9.50178C8.72106 9.76745 8.39461 9.91671 8.05422 9.91671ZM4.84565 8.50004C4.84565 8.6879 4.77804 8.86807 4.6577 9.00091C4.53735 9.13375 4.37413 9.20837 4.20394 9.20837H3.56222C3.39203 9.20837 3.2288 9.13375 3.10846 9.00091C2.98811 8.86807 2.92051 8.6879 2.92051 8.50004C2.92051 8.31218 2.98811 8.13201 3.10846 7.99917C3.2288 7.86634 3.39203 7.79171 3.56222 7.79171H4.20394C4.37413 7.79171 4.53735 7.86634 4.6577 7.99917C4.77804 8.13201 4.84565 8.31218 4.84565 8.50004ZM13.1879 8.50004C13.1879 8.6879 13.1203 8.86807 13 9.00091C12.8796 9.13375 12.7164 9.20837 12.5462 9.20837H11.9045C11.7343 9.20837 11.5711 9.13375 11.4508 9.00091C11.3304 8.86807 11.2628 8.6879 11.2628 8.50004C11.2628 8.31218 11.3304 8.13201 11.4508 7.99917C11.5711 7.86634 11.7343 7.79171 11.9045 7.79171H12.5462C12.7164 7.79171 12.8796 7.86634 13 7.99917C13.1203 8.13201 13.1879 8.31218 13.1879 8.50004Z" fill="#41455C"/>
</g>
<defs>
<clipPath id="clip0_244_68">
<rect x="0.353638" width="15.4012" height="17" rx="7.70058" fill="#41455C"/>
</clipPath>
</defs>
</svg>
