<svg width="24" height="22" viewBox="0 0 24 22" fill="none" xmlns="http://www.w3.org/2000/svg">
<path d="M10 3.66429C10 3.32006 10.1173 2.98356 10.3371 2.69734C10.5568 2.41112 10.8692 2.18804 11.2346 2.05631C11.6001 1.92458 12.0022 1.89012 12.3902 1.95727C12.7781 2.02443 13.1345 2.19019 13.4142 2.4336C13.6939 2.677 13.8844 2.98712 13.9616 3.32474C14.0387 3.66236 13.9991 4.0123 13.8478 4.33033C13.6964 4.64836 13.44 4.92018 13.1111 5.11142C12.7822 5.30267 12.3956 5.40474 12 5.40474C11.4696 5.40474 10.9609 5.22138 10.5858 4.89498C10.2107 4.56858 10 4.12589 10 3.66429ZM12 12.3666C12.3956 12.3666 12.7822 12.2645 13.1111 12.0733C13.44 11.882 13.6964 11.6102 13.8478 11.2922C13.9991 10.9741 14.0387 10.6242 13.9616 10.2866C13.8844 9.94896 13.6939 9.63884 13.4142 9.39543C13.1345 9.15202 12.7781 8.98626 12.3902 8.9191C12.0022 8.85195 11.6001 8.88641 11.2346 9.01814C10.8692 9.14988 10.5568 9.37296 10.3371 9.65917C10.1173 9.94539 10 10.2819 10 10.6261C10 11.0877 10.2107 11.5304 10.5858 11.8568C10.9609 12.1832 11.4696 12.3666 12 12.3666ZM12 19.3284C12.3956 19.3284 12.7822 19.2263 13.1111 19.0351C13.44 18.8438 13.6964 18.572 13.8478 18.254C13.9991 17.936 14.0387 17.586 13.9616 17.2484C13.8844 16.9108 13.6939 16.6007 13.4142 16.3573C13.1345 16.1139 12.7781 15.9481 12.3902 15.8809C12.0022 15.8138 11.6001 15.8482 11.2346 15.98C10.8692 16.1117 10.5568 16.3348 10.3371 16.621C10.1173 16.9072 10 17.2437 10 17.5879C10 18.0495 10.2107 18.4922 10.5858 18.8186C10.9609 19.145 11.4696 19.3284 12 19.3284Z" fill="#41455C"/>
</svg>
