<svg width="19" height="16" viewBox="0 0 19 16" fill="none" xmlns="http://www.w3.org/2000/svg">
  <path
    d="M7.09672 9.00002C6.66218 9.00002 6.23741 8.88272 5.87611 8.66296C5.5148 8.4432 5.2332 8.13084 5.06692 7.76539C4.90063 7.39994 4.85712 6.9978 4.94189 6.60984C5.02666 6.22188 5.23591 5.86551 5.54317 5.58581C5.85044 5.3061 6.24191 5.11562 6.66809 5.03845C7.09428 4.96128 7.53603 5.00089 7.93749 5.15226C8.33894 5.30364 8.68207 5.55998 8.92349 5.88888C9.1649 6.21778 9.29376 6.60446 9.29376 7.00002C9.29376 7.53045 9.06228 8.03916 8.65026 8.41424C8.23823 8.78931 7.67941 9.00002 7.09672 9.00002ZM2.70264 13V13.6667C2.70264 13.8435 2.77979 14.0131 2.91714 14.1381C3.05448 14.2631 3.24075 14.3334 3.43498 14.3334H10.7584C10.9527 14.3334 11.139 14.2631 11.2763 14.1381C11.4136 14.0131 11.4908 13.8435 11.4908 13.6667V13C11.4908 12.4696 11.2593 11.9609 10.8473 11.5858C10.4353 11.2107 9.87645 11 9.29376 11H4.89968C4.31699 11 3.75816 11.2107 3.34613 11.5858C2.93411 11.9609 2.70264 12.4696 2.70264 13ZM10.9679 9.83469C11.1052 9.95967 11.2915 10.0299 11.4857 10.0299C11.6799 10.0299 11.8661 9.95967 12.0034 9.83469C12.4125 9.46243 12.737 9.02046 12.9584 8.53403C13.1798 8.04759 13.2937 7.52622 13.2937 6.99969C13.2937 6.47316 13.1798 5.95178 12.9584 5.46535C12.737 4.97891 12.4125 4.53694 12.0034 4.16469C11.9359 4.10102 11.8551 4.05023 11.7657 4.01529C11.6764 3.98035 11.5803 3.96196 11.483 3.96119C11.3858 3.96042 11.2894 3.97729 11.1994 4.01081C11.1094 4.04433 11.0276 4.09383 10.9588 4.15643C10.8901 4.21902 10.8357 4.29346 10.7989 4.37539C10.762 4.45732 10.7435 4.5451 10.7443 4.63362C10.7452 4.72214 10.7654 4.80962 10.8038 4.89096C10.8422 4.97229 10.898 5.04586 10.9679 5.10736C11.2409 5.35585 11.4575 5.65086 11.6052 5.97555C11.753 6.30024 11.829 6.64824 11.829 6.99969C11.829 7.35113 11.753 7.69914 11.6052 8.02382C11.4575 8.34851 11.2409 8.64353 10.9679 8.89202C10.8306 9.01704 10.7535 9.18658 10.7535 9.36336C10.7535 9.54013 10.8306 9.70967 10.9679 9.83469ZM14.2005 1.85402C14.132 1.79039 14.0502 1.73989 13.96 1.7055C13.8697 1.67111 13.7728 1.65354 13.675 1.65381C13.5771 1.65409 13.4804 1.67221 13.3903 1.7071C13.3003 1.74199 13.2189 1.79295 13.1509 1.85697C13.0828 1.92099 13.0296 1.99677 12.9943 2.07983C12.959 2.16289 12.9423 2.25155 12.9452 2.34058C12.9482 2.42961 12.9707 2.51719 13.0115 2.59816C13.0522 2.67914 13.1104 2.75185 13.1825 2.81202C13.8061 3.35182 14.3026 4.0014 14.6419 4.72128C14.9812 5.44117 15.1562 6.21634 15.1562 6.99969C15.1562 7.78304 14.9812 8.5582 14.6419 9.27809C14.3026 9.99798 13.8061 10.6476 13.1825 11.1874C13.1104 11.2475 13.0522 11.3202 13.0115 11.4012C12.9707 11.4822 12.9482 11.5698 12.9452 11.6588C12.9423 11.7478 12.959 11.8365 12.9943 11.9195C13.0296 12.0026 13.0828 12.0784 13.1509 12.1424C13.2189 12.2064 13.3003 12.2574 13.3903 12.2923C13.4804 12.3272 13.5771 12.3453 13.675 12.3456C13.7728 12.3458 13.8697 12.3283 13.96 12.2939C14.0502 12.2595 14.132 12.209 14.2005 12.1454C14.9654 11.4814 15.5744 10.683 15.9904 9.79849C16.4065 8.91401 16.621 7.96185 16.621 6.99969C16.621 6.03753 16.4065 5.08537 15.9904 4.20089C15.5744 3.31641 14.9654 2.518 14.2005 1.85402Z"
    fill="#41455C" />
</svg>