<svg width="36" height="35" viewBox="0 0 36 35" fill="none" xmlns="http://www.w3.org/2000/svg">
<g clip-path="url(#clip0_204_226)">
<path d="M31.9022 10.3712C31.9245 10.6821 31.9245 10.9931 31.9245 11.304C31.9245 20.7868 24.7069 31.7132 11.5152 31.7132C7.45112 31.7132 3.67577 30.5361 0.5 28.4931C1.07743 28.5597 1.63258 28.5819 2.23223 28.5819C5.5856 28.5819 8.67257 27.4493 11.1377 25.5172C7.98412 25.4505 5.34135 23.3852 4.4308 20.5425C4.875 20.6091 5.31913 20.6536 5.78555 20.6536C6.42956 20.6536 7.07364 20.5647 7.67322 20.4093C4.38644 19.743 1.92126 16.856 1.92126 13.3693V13.2805C2.87617 13.8135 3.98667 14.1466 5.16361 14.191C3.2315 12.9029 1.96569 10.7043 1.96569 8.21701C1.96569 6.88455 2.32096 5.66311 2.94282 4.59711C6.47393 8.94989 11.7817 11.7925 17.7334 12.1034C17.6224 11.5704 17.5557 11.0153 17.5557 10.4601C17.5557 6.507 20.7537 3.28687 24.729 3.28687C26.7943 3.28687 28.6598 4.15298 29.9701 5.55209C31.5912 5.24119 33.1458 4.64154 34.5227 3.81986C33.9897 5.48551 32.8571 6.88462 31.3692 7.77288C32.8127 7.6175 34.2118 7.21767 35.4999 6.66252C34.5229 8.08378 33.3014 9.34959 31.9022 10.3712Z" fill="white"/>
</g>
<defs>
<clipPath id="clip0_204_226">
<rect width="35" height="35" fill="white" transform="translate(0.5)"/>
</clipPath>
</defs>
</svg>
