<svg width="32" height="32" viewBox="0 0 32 32" fill="none" xmlns="http://www.w3.org/2000/svg">
<path d="M16 1.33334C13.0993 1.33334 10.2636 2.19353 7.85168 3.80512C5.43976 5.41672 3.5599 7.70734 2.44981 10.3873C1.33973 13.0673 1.04928 16.0163 1.6152 18.8613C2.18111 21.7064 3.57798 24.3197 5.62915 26.3709C7.68032 28.4221 10.2937 29.8189 13.1387 30.3849C15.9838 30.9508 18.9328 30.6603 21.6127 29.5502C24.2927 28.4402 26.5833 26.5603 28.1949 24.1484C29.8065 21.7365 30.6667 18.9008 30.6667 16C30.6621 12.1116 29.1154 8.38372 26.3659 5.63418C23.6163 2.88464 19.8885 1.33793 16 1.33334ZM16 28C13.518 27.9423 11.1057 27.1671 9.05471 25.768C9.93003 24.7929 11.0008 24.0131 12.1975 23.4793C13.3941 22.9454 14.6897 22.6695 16 22.6695C17.3104 22.6695 18.606 22.9454 19.8026 23.4793C20.9993 24.0131 22.0701 24.7929 22.9454 25.768C20.9115 27.2017 18.4884 27.9804 16 28ZM24.9254 23.992C23.8023 22.7361 22.4268 21.7313 20.8888 21.0434C19.3508 20.3554 17.6849 19.9998 16 19.9998C14.3152 19.9998 12.6493 20.3554 11.1113 21.0434C9.57331 21.7313 8.1978 22.7361 7.07471 23.992C5.52468 22.2672 4.50759 20.1303 4.14646 17.8397C3.78532 15.5491 4.09562 13.2029 5.03981 11.0849C5.98401 8.96686 7.52165 7.16781 9.46676 5.90529C11.4119 4.64278 13.6811 3.97089 16 3.97089C18.319 3.97089 20.5882 4.64278 22.5333 5.90529C24.4784 7.16781 26.0161 8.96686 26.9603 11.0849C27.9045 13.2029 28.2148 15.5491 27.8536 17.8397C27.4925 20.1303 26.4754 22.2672 24.9254 23.992ZM16 8.00001C14.9452 8.00001 13.9141 8.3128 13.037 8.89884C12.1599 9.48487 11.4764 10.3178 11.0727 11.2924C10.669 12.2669 10.5634 13.3393 10.7692 14.3738C10.975 15.4084 11.4829 16.3587 12.2288 17.1046C12.9747 17.8505 13.925 18.3584 14.9596 18.5642C15.9941 18.77 17.0665 18.6644 18.041 18.2607C19.0156 17.857 19.8485 17.1734 20.4346 16.2964C21.0206 15.4193 21.3334 14.3882 21.3334 13.3333C21.3334 11.9189 20.7715 10.5623 19.7713 9.56211C18.7711 8.56191 17.4145 8.00001 16 8.00001ZM16 16C15.4726 16 14.9571 15.8436 14.5185 15.5506C14.08 15.2576 13.7382 14.8411 13.5364 14.3538C13.3345 13.8666 13.2817 13.3304 13.3846 12.8131C13.4875 12.2958 13.7415 11.8207 14.1144 11.4477C14.4874 11.0748 14.9625 10.8208 15.4798 10.7179C15.9971 10.615 16.5333 10.6678 17.0205 10.8697C17.5078 11.0715 17.9243 11.4133 18.2173 11.8518C18.5103 12.2904 18.6667 12.8059 18.6667 13.3333C18.6667 14.0406 18.3858 14.7189 17.8857 15.219C17.3856 15.7191 16.7073 16 16 16Z" fill="#FFFFFF"/>
</svg>
